<svg xmlns="http://www.w3.org/2000/svg" viewBox="0 0 256 256" width="50" height="50"><path d="M214.72 44.16c-3.4.12-6.52 1.92-8.32 4.8l-96.32 147.36-62.4-53.92c-2.68-2.78-6.7-3.82-10.4-2.66a10.231 10.231 0 00-7.06 8.06c-.64 3.82.9 7.66 4.02 9.96l71.36 61.76c2.24 1.9 5.2 2.74 8.1 2.32 2.92-.44 5.5-2.1 7.1-4.56L223.68 60.16c2.2-3.22 2.38-7.38.48-10.78-1.9-3.38-5.56-5.4-9.44-5.22z" fill="#f92b53" stroke-miterlimit="10" font-family="none" font-weight="none" font-size="none" text-anchor="none"/></svg>